<svg xmlns="http://www.w3.org/2000/svg" xmlns:xlink="http://www.w3.org/1999/xlink" width="165" zoomAndPan="magnify" viewBox="0 0 123.75 146.249994" height="195" preserveAspectRatio="xMidYMid meet" version="1.0"><defs><clipPath id="0d60f7867e"><path d="M 14.28125 0 L 109 0 L 109 145.503906 L 14.28125 145.503906 Z M 14.28125 0 " clip-rule="nonzero"/></clipPath></defs><g clip-path="url(#0d60f7867e)"><path fill="#1e7e80" d="M 83.398438 109.414062 C 84.472656 107.144531 85.652344 104.925781 86.636719 102.605469 C 87.34375 100.941406 87.71875 99.160156 88.546875 97.550781 C 88.582031 98.339844 88.617188 99.125 88.652344 99.914062 C 89.101562 99.082031 89.859375 98.222656 88.550781 97.554688 C 88.453125 96.410156 88.945312 95.378906 89.207031 94.316406 C 89.589844 92.753906 89.910156 91.1875 90.070312 89.589844 C 90.113281 89.171875 90.261719 88.769531 90.417969 88.132812 C 91.019531 89.472656 90.355469 90.648438 90.785156 91.941406 C 91.574219 88.085938 91.777344 84.429688 91.191406 80.738281 C 90.671875 82.851562 91.398438 85.058594 90.65625 87.273438 C 90.277344 84.492188 90.785156 81.792969 90.339844 79.117188 C 89.898438 76.476562 89.445312 73.847656 88.378906 71.167969 C 88.925781 71.5625 89.039062 72.152344 89.636719 72.15625 C 89.894531 71.882812 89.667969 71.617188 89.570312 71.367188 C 87.738281 66.730469 85.0625 62.679688 80.859375 59.894531 C 78.007812 58.003906 74.777344 56.917969 71.378906 56.375 C 67.019531 55.675781 62.671875 56.003906 58.335938 56.53125 C 56.746094 56.726562 55.375 57.578125 54.101562 58.472656 C 51.292969 60.4375 48.542969 62.480469 46.011719 64.804688 C 45.664062 65.125 45.3125 65.703125 44.746094 65.496094 C 44 65.21875 43.996094 64.546875 44.683594 64.023438 C 46.761719 62.445312 48.847656 60.878906 50.925781 59.300781 C 51.4375 58.914062 51.929688 58.5 52.429688 58.097656 C 52.367188 58.015625 52.308594 57.9375 52.246094 57.855469 C 50.96875 58.726562 49.679688 59.578125 48.421875 60.476562 C 47.390625 61.214844 46.371094 61.972656 45.40625 62.792969 C 44.820312 63.289062 44.542969 63.121094 44.0625 62.628906 C 43.429688 61.984375 44.035156 61.761719 44.34375 61.507812 C 45.632812 60.433594 46.960938 59.40625 48.273438 58.363281 C 48.742188 57.992188 49.242188 57.652344 49.515625 56.710938 C 47.570312 58.214844 45.835938 59.558594 44.101562 60.894531 C 43.367188 61.464844 42.871094 62.292969 41.5625 61.777344 C 40.976562 61.546875 40.058594 62.011719 39.5 61.183594 C 39.398438 61.03125 39.160156 60.890625 39.238281 60.730469 C 39.6875 59.8125 38.769531 59.550781 38.523438 58.984375 C 38.082031 57.964844 37.179688 58.066406 36.496094 57.71875 C 35.636719 57.289062 34.511719 57.242188 34.5625 55.882812 C 34.566406 55.742188 34.472656 55.707031 34.34375 55.730469 C 34 55.785156 33.363281 55.996094 33.449219 55.554688 C 33.558594 55.007812 33.488281 54.449219 33.761719 53.839844 C 34.421875 52.378906 35.472656 51.320312 36.550781 50.257812 C 38.730469 48.105469 41.261719 46.390625 43.730469 44.597656 C 44.113281 44.320312 44.554688 44.109375 44.835938 43.65625 C 44.121094 43.367188 43.632812 43.421875 43.136719 44.023438 C 42.402344 44.921875 41.242188 45.273438 40.308594 45.929688 C 38.746094 47.027344 37.417969 48.292969 36.292969 49.804688 C 35.917969 50.3125 35.527344 50.6875 34.792969 50.371094 C 34.351562 50.179688 34.226562 50.078125 34.476562 49.59375 C 35.015625 48.546875 35.886719 47.769531 36.589844 46.859375 C 38.289062 44.660156 40.152344 42.597656 41.9375 40.46875 C 42.683594 39.578125 43.160156 38.460938 43.765625 37.433594 C 43.273438 37.042969 42.90625 37.777344 42.402344 37.210938 C 45.59375 33.144531 49.894531 30.046875 53.320312 25.832031 C 50.09375 26.445312 47.105469 27.007812 44.117188 27.582031 C 40.140625 28.351562 36.160156 29.09375 32.199219 29.9375 C 31.308594 30.128906 31.285156 29.597656 31.160156 29.101562 C 30.984375 28.394531 31.59375 28.570312 31.941406 28.507812 C 33.589844 28.21875 35.246094 27.953125 36.898438 27.667969 C 37.09375 27.632812 37.363281 27.679688 37.441406 27.296875 C 36.152344 27.019531 34.949219 27.496094 33.734375 27.675781 C 33.042969 27.777344 32.664062 27.78125 32.46875 26.941406 C 32.246094 25.988281 32.972656 26.125 33.355469 26.070312 C 35.253906 25.792969 37.007812 24.984375 38.863281 24.542969 C 37.578125 24.359375 36.390625 24.9375 35.140625 25.058594 C 34.144531 25.15625 33.175781 25.46875 32.179688 25.605469 C 31.574219 25.6875 30.832031 26.035156 30.492188 25.074219 C 30.40625 24.835938 30.042969 24.824219 29.78125 24.847656 C 29.15625 24.914062 28.671875 24.730469 28.464844 24.097656 C 28.277344 23.515625 27.941406 22.878906 28.847656 22.550781 C 28.9375 22.519531 29.070312 22.359375 29.050781 22.308594 C 28.746094 21.492188 28.59375 20.539062 28.058594 19.910156 C 27.5 19.246094 26.667969 18.78125 26.136719 18.058594 C 25.78125 17.574219 25.46875 16.988281 26.230469 16.535156 C 25.980469 16.226562 25.640625 16.304688 25.375 16.183594 C 25.082031 16.046875 25.015625 15.886719 25.246094 15.585938 C 25.761719 14.910156 26.375 14.417969 27.21875 14.21875 C 27.511719 14.152344 28 14.355469 27.890625 13.644531 C 27.847656 13.367188 28.488281 13.335938 28.839844 13.230469 C 36.121094 11.042969 43.738281 10.539062 51.097656 8.738281 C 53 8.273438 54.929688 7.867188 56.832031 7.449219 C 58.246094 7.140625 59.867188 6.796875 61.183594 5.769531 C 61.90625 5.203125 63.101562 5.164062 64.023438 5.089844 C 65.933594 4.9375 67.71875 4.347656 69.542969 3.941406 C 73.246094 3.125 76.902344 2.105469 80.570312 1.128906 C 81.3125 0.933594 82.128906 0.859375 82.710938 0.246094 C 82.804688 0.152344 83.039062 0.0351562 83.082031 0.0703125 C 83.816406 0.714844 84.746094 0.597656 85.554688 0.828125 C 86.292969 1.039062 87.003906 0.945312 87.703125 1.109375 C 88.035156 1.183594 88.316406 1.074219 88.386719 1.582031 C 88.492188 2.335938 88.582031 3.144531 89.417969 3.539062 C 89.496094 3.578125 89.597656 3.75 89.574219 3.8125 C 89.140625 4.8125 89.992188 4.996094 90.441406 5.59375 C 91.222656 6.625 92.117188 6.292969 92.957031 6.375 C 94.203125 6.496094 95 7 95.125 8.019531 C 95.515625 8.054688 96.082031 7.460938 96.199219 7.882812 C 96.339844 8.386719 96.429688 9.03125 96.136719 9.628906 C 95.15625 11.617188 93.894531 13.398438 92.449219 15.074219 C 91.496094 16.175781 90.472656 17.195312 89.410156 18.183594 C 84.164062 23.050781 78.9375 27.941406 73.636719 32.75 C 72.578125 33.714844 71.566406 34.738281 70.347656 35.570312 C 69.410156 36.210938 68.632812 37.261719 67.859375 38.191406 C 67.386719 38.757812 68.035156 38.769531 68.359375 38.777344 C 70.265625 38.832031 72.144531 39.140625 74.019531 39.460938 C 83.402344 41.058594 91.527344 45.027344 97.863281 52.277344 C 102.773438 57.898438 105.878906 64.414062 107.488281 71.707031 C 108.671875 77.070312 109.210938 82.476562 108.765625 87.9375 C 108.34375 93.09375 107.871094 98.28125 105.730469 103.101562 C 105.160156 104.386719 105.183594 105.808594 104.699219 107.089844 C 102.824219 112.015625 100.433594 116.683594 97.785156 121.246094 C 96.210938 123.957031 94.625 126.632812 92.390625 128.8125 C 89.890625 131.246094 87.710938 134.027344 84.703125 135.933594 C 74.910156 142.136719 64.3125 145.457031 52.644531 145.289062 C 44.769531 145.175781 37.390625 143.28125 30.664062 139.277344 C 22.441406 134.378906 17.113281 127.285156 15.429688 117.683594 C 14.8125 114.175781 14.273438 110.628906 14.953125 107.121094 C 15.945312 102.035156 17.550781 97.125 20.386719 92.714844 C 20.621094 92.34375 20.734375 91.679688 21.5 92.070312 C 21.578125 92.113281 22.035156 91.515625 22.246094 91.175781 C 23.703125 88.804688 25.882812 87.046875 27.503906 84.679688 C 27.800781 85.292969 27.503906 85.957031 28.234375 86.207031 C 28.542969 86.3125 28.257812 86.6875 28.140625 86.878906 C 26.175781 90.042969 24.757812 93.523438 22.464844 96.496094 C 21.824219 97.328125 21.46875 98.34375 21.203125 99.347656 C 19.605469 105.355469 19.335938 111.410156 20.839844 117.480469 C 21.484375 120.082031 22.492188 122.550781 24.027344 124.792969 C 20.574219 118.707031 19.867188 112.148438 20.636719 105.351562 C 20.929688 102.789062 21.449219 100.261719 23.242188 98.203125 C 23.621094 98.582031 22.757812 99.054688 23.300781 99.402344 C 23.949219 99.816406 23.941406 98.816406 24.519531 98.851562 C 24.335938 99.953125 24.121094 101.03125 23.992188 102.121094 C 23.949219 102.445312 23.605469 102.972656 24.425781 103.078125 C 24.761719 103.125 24.5625 103.734375 24.515625 104.09375 C 23.847656 108.996094 24.023438 113.84375 25.65625 118.558594 C 27.671875 124.378906 31.679688 128.402344 37.09375 131.140625 C 38.449219 131.824219 39.808594 132.492188 41.339844 132.757812 C 40.085938 131.9375 38.582031 131.574219 37.4375 130.5625 C 36.980469 130.160156 36.597656 129.941406 36.535156 129.121094 C 36.480469 128.347656 35.875 127.40625 35.074219 126.875 C 31.589844 124.566406 30.105469 120.960938 29.175781 117.183594 C 28.71875 115.324219 28.195312 113.316406 28.46875 111.363281 C 28.851562 108.640625 28.402344 105.804688 29.542969 103.1875 C 30.007812 102.117188 30.40625 100.9375 31.984375 101.082031 C 29.066406 108.789062 29.285156 116.148438 34.964844 122.539062 C 38.296875 126.292969 42.914062 127.496094 48.023438 127.714844 C 47.417969 126.996094 46.480469 127.234375 46.117188 126.390625 C 47.226562 126.488281 48.285156 126.5625 49.335938 126.675781 C 55.15625 127.3125 60.839844 126.578125 66.289062 124.550781 C 70.1875 123.101562 73.78125 120.980469 76.667969 117.902344 C 78.527344 115.925781 80.425781 113.960938 81.765625 111.546875 C 82.046875 111.042969 82.527344 110.652344 82.914062 110.210938 C 82.628906 111.148438 82.273438 112.054688 81.773438 112.90625 C 82.804688 111.628906 84.113281 110.519531 84.3125 108.660156 C 83.851562 108.835938 83.632812 109.132812 83.398438 109.414062 Z M 57.976562 52.601562 C 61.316406 52.140625 64.695312 52.09375 68.070312 52.28125 C 71.484375 52.46875 74.800781 53.257812 78.089844 54.148438 C 71.574219 51.3125 64.808594 51.527344 57.976562 52.601562 Z M 66.003906 54.824219 C 62.257812 54.199219 57.949219 54.53125 56.84375 55.539062 C 59.996094 55.496094 62.960938 54.550781 66.003906 54.824219 Z M 86.242188 59.230469 C 84.59375 57.226562 82.34375 56.105469 80.058594 55.03125 C 82.21875 56.285156 84.21875 57.777344 86.242188 59.230469 Z M 56.175781 53.066406 C 54.375 53.246094 51.460938 54.914062 50.613281 56.285156 C 52.527344 55.074219 54.125 53.671875 56.175781 53.066406 Z M 39.726562 24.25 C 39.742188 24.339844 39.757812 24.433594 39.773438 24.527344 C 41.582031 24.183594 43.4375 24.117188 45.199219 23.535156 C 45.179688 23.421875 45.160156 23.3125 45.140625 23.199219 C 43.335938 23.550781 41.53125 23.898438 39.726562 24.25 Z M 91.4375 66.089844 C 90.6875 64.589844 89.90625 63.113281 88.664062 61.957031 C 89.480469 63.410156 90.550781 64.6875 91.4375 66.089844 Z M 80.710938 114.171875 C 79.636719 115.175781 79.417969 115.59375 79.417969 116.78125 C 79.976562 115.851562 80.894531 115.421875 80.710938 114.171875 Z M 42.175781 26.808594 C 41.484375 26.613281 40.8125 26.492188 40.121094 26.609375 C 39.847656 26.65625 39.398438 26.609375 39.441406 26.972656 C 39.492188 27.390625 39.929688 27.316406 40.257812 27.242188 C 40.890625 27.105469 41.523438 26.957031 42.175781 26.808594 Z M 71.515625 123.386719 C 70.007812 123.207031 69.554688 124.644531 68.453125 124.867188 C 69.488281 124.535156 70.496094 124.148438 71.515625 123.386719 Z M 90.261719 76.21875 C 90.292969 76.238281 90.320312 76.273438 90.351562 76.277344 C 90.375 76.277344 90.410156 76.238281 90.429688 76.210938 C 90.8125 75.589844 90.753906 74.941406 90.429688 74.335938 C 90.3125 74.117188 90.238281 74.4375 90.148438 74.503906 C 89.441406 75.007812 90.257812 75.511719 90.171875 76.023438 C 90.160156 76.082031 90.230469 76.152344 90.261719 76.21875 Z M 90.261719 76.21875 " fill-opacity="1" fill-rule="nonzero"/></g></svg>